<svg id="Layer_1" data-name="Layer 1" xmlns="http://www.w3.org/2000/svg" xmlns:xlink="http://www.w3.org/1999/xlink" viewBox="0 0 612 612"><defs><style>.cls-1{fill:url(#linear-gradient);}.cls-2{fill:#3d9add;}.cls-3{fill:url(#linear-gradient-2);}.cls-4{fill:#fac900;}.cls-5{fill:#1a1818;}</style><linearGradient id="linear-gradient" x1="157.21" y1="625.08" x2="475.89" y2="73.11" gradientUnits="userSpaceOnUse"><stop offset="0" stop-color="#5d3b1c"/><stop offset="0.08" stop-color="#57371a"/><stop offset="0.42" stop-color="#3f2715"/><stop offset="0.74" stop-color="#301d11"/><stop offset="1" stop-color="#2b1a10"/></linearGradient><linearGradient id="linear-gradient-2" x1="204.87" y1="204.27" x2="546.9" y2="401.75" gradientUnits="userSpaceOnUse"><stop offset="0" stop-color="#2b1a10"/><stop offset="0.23" stop-color="#36200f"/><stop offset="0.65" stop-color="#45270d"/><stop offset="1" stop-color="#4a2a0d"/></linearGradient></defs><path class="cls-1" d="M252.45,287.65c-2.65-34.3-4.48-68.69-8.28-102.87-2.08-18.68-7-37.11-11.53-55.43-8.91-36.08,1.3-60.47,33.73-79.27,21.2-12.29,44.49-17.52,68.47-19.34,29.08-2.21,58-.38,85.24,11.25A135.38,135.38,0,0,1,449.5,59.27c14.67,11.39,20.57,27.15,20.57,45.94,0,32.73-7,64.29-14,95.91-9.91,44.67-20.61,89.18-29.53,134.05-7.09,35.65-5.26,71.38,4.89,106.55a259.82,259.82,0,0,1,7,30.56c1.94,12,1,24.11-4.18,35.2-4.48,9.61-4.36,19.22-2.92,29.21a111.94,111.94,0,0,1,1.42,13.4c.23,12-3.77,16-15.76,16.79q-41.84,2.64-83.68,5.33a81.26,81.26,0,0,1-12,.29c-5.94-.51-9.85-3.24-11.47-9.74-2.85-11.45-6.62-13.43-17.76-10.48a97,97,0,0,0-11.16,4.21c-54.78,21.82-111.88,28.21-170.24,24.66-18.37-1.12-36.41-5.33-53.2-13.78A65,65,0,0,1,27.56,537.1c-8.31-16.93-2.85-32.12,14.87-38.5,6.88-2.48,14.6-3,22-3.56,44.2-3.11,85-15.91,121.28-41.86,34-24.33,56.23-56.8,62.87-98.11,3.15-19.53,1.55-39.83,2.07-59.78.07-2.49,0-5,0-7.49ZM360.07,118.1c14.86-1.41,29.88-1.91,44.54-4.5,15.1-2.66,29.84-7.4,44.76-11.15,4-1,6.81-3.2,4.47-7.19-.79-1.35-5.1-1.38-7.57-.88-19.46,3.93-38.69,9.65-58.33,12-40.14,4.7-79.62,1.93-116.56-17-3.37-1.73-7.81-7.81-11.13-1.4-3,5.82,4,6.72,7.41,8.84A76.94,76.94,0,0,0,278.38,102C304.47,113,331.7,117.83,360.07,118.1Zm52.18,324.53-3-.28c.16,31.34-15.38,51-44.47,60.82,16,.74,31.26-.63,46-5.47,5.56-1.83,10.52-5.15,9.52-11.65C418.06,471.51,415,457.09,412.25,442.63Z"/><path class="cls-2" d="M267.45,287.65c-2.56-33.22-4.36-66.5-7.93-99.63A383.85,383.85,0,0,0,250,136.79c-1.72-6.94-3.66-13.85-4.79-20.91-.17-1.12-.44-4,.1.94,0-.49-.12-1-.18-1.49-.16-1.47-.29-2.94-.37-4.41a73.9,73.9,0,0,1,0-8.42c.06-1.12.18-2.24.27-3.36.25-2.75-.64,4.06-.19,1.35.11-.64.21-1.29.33-1.94A56.85,56.85,0,0,1,247,91.08c.34-1,.76-2,1.1-3-1.81,5.22-.33.84.32-.47a55.33,55.33,0,0,1,4-6.62c.77-1.11,3.47-4,0-.13.9-1,1.72-2.08,2.62-3.08a74.23,74.23,0,0,1,6-5.88c.93-.81,1.88-1.58,2.82-2.35,2.24-1.84-3,2.21-.65.5l1.87-1.36c2.53-1.79,5.13-3.46,7.79-5q4.57-2.72,9.36-5c1.61-.78,3.24-1.51,4.87-2.24,3.15-1.41-3.22,1.24,0,0,.9-.34,1.8-.71,2.7-1A152.7,152.7,0,0,1,311,49.13q5.18-1.12,10.43-1.94l2.87-.43c3.44-.51-3.61.42-.15,0,1.93-.22,3.86-.45,5.8-.63,7.66-.74,15.37-1.15,23.07-1.22a207.17,207.17,0,0,1,23.1,1c1,.1,2,.23,3,.34,3.54.37-3.54-.54,0,0,1.66.25,3.31.51,4.95.79q5.94,1.05,11.78,2.54,5.4,1.38,10.66,3.18,2.91,1,5.76,2.11a18.07,18.07,0,0,0,1.91.76c-2-.84-2.25-1-.8-.33l1.78.79a135.39,135.39,0,0,1,19.65,11q2,1.36,4,2.8a11.8,11.8,0,0,0,2.34,1.75l-1.6-1.23c.44.35.88.71,1.3,1.08,2.51,2.13,4.44,4.74,6.82,7-2.87-2.67-1.27-1.69-.45-.53.3.42.6.85.88,1.29q1.29,1.94,2.38,4c.61,1.14,1.12,2.32,1.69,3.48-2-4.16-.75-1.76-.35-.7s.69,2,1,3a67.72,67.72,0,0,1,1.93,8.55c.51,2.94-.34-3.2-.16-1.14.06.69.15,1.37.21,2.06.16,2,.24,4,.27,5.94a240.84,240.84,0,0,1-1.1,24.16c-.35,3.85-.8,7.69-1.27,11.53-.33,2.71.11-.49.12-.86-.05,1-.29,2.11-.44,3.13q-.53,3.65-1.13,7.28c-1.28,7.8-2.77,15.56-4.37,23.3-3.29,15.92-6.91,31.78-10.5,47.63-7.38,32.58-14.95,65.13-21.69,97.85-3.5,17-6.56,34-7.23,51.4a241.85,241.85,0,0,0,3.75,51c2.8,16,8.09,31.34,11.25,47.24q.51,2.56,1,5.14c.18,1,.33,2.06.52,3.08.62,3.51-.28-3.53,0,0a79.72,79.72,0,0,1,.25,11.46c-.06.83-.15,1.65-.22,2.47-.29,3.49.73-3.47,0-.06-.4,1.79-.73,3.57-1.22,5.33-.29,1-.89,4.67-1.77,5.22l.73-1.72c-.29.63-.57,1.26-.85,1.89-.8,1.8-1.6,3.65-2.29,5.5-3,7.94-3.61,17-2.85,25.35.28,3,.71,6,1.13,9a14.86,14.86,0,0,1,.44,3.08c.26-2.85-.26-2.17-.12-.9a59.82,59.82,0,0,1,.49,10.78c-.1,1.52-.9,3,.25-1.5-.14.54-.2,1.11-.35,1.66,0,.15-.32,1.46-.48,1.49s1.72-3.89.9-2.24c-1.37,2.76,2.81-3.37.37-.49-1.39,1.63,3.53-2.08,1.53-1.22a11,11,0,0,0-1.31.7c3.44-2.2,3.17-1.2,1.58-.76-.57.16-1.13.31-1.71.44s-1,.17-1.56.28c-1.84.41,4.34-.41,1.59-.24-4.12.26-8.24.55-12.35.81l-50,3.19c-8.27.53-16.55,1-24.82,1.58-1.66.11-3.33.22-5,.27-1,0-2,0-3,0-1.7-.05-3.77-1,.56.25a19.25,19.25,0,0,0-2-.44c-2.12-.4,1.81.51,1.78.82L322,557.3c2.17,1.78,2.71,2.15,1.63,1.13s-.6-.6,1.14,1.52l-.35-.57q-1.05-2,.58,1.66c-.09-.47-.37-1-.5-1.48-.43-1.44-.75-2.91-1.23-4.33A33.72,33.72,0,0,0,317,543.56a22.85,22.85,0,0,0-18.92-7.44c-8,.69-14.72,3.37-22.08,6.29s-14.82,5.55-22.37,8a356.76,356.76,0,0,1-44.44,11q-5.47,1-11,1.82l-3,.44-1,.14,1-.13c-.45.36-2.43.31-3,.38-1,.13-2,.25-3,.36q-11.58,1.35-23.23,2a462.81,462.81,0,0,1-47,.24c-3.73-.17-7.46-.35-11.18-.65q-2.94-.23-5.88-.57c-.65-.08-1.3-.18-2-.24,4.72.49.11,0-.87-.19a134.74,134.74,0,0,1-22-5.48c-1.72-.59-3.42-1.21-5.11-1.88a8.41,8.41,0,0,1-2.31-.93l1.75.74-1.83-.81a89.55,89.55,0,0,1-9.77-5.08c-1.19-.73-2.36-1.5-3.51-2.3-.67-.48-1.32-1-2-1.47,3.63,2.31,1.34,1,.46.28a63.07,63.07,0,0,1-7-6.89,17.88,17.88,0,0,0-1.57-1.89c.14.13,2.23,3,.84,1.08-1-1.35-1.93-2.7-2.81-4.11-.75-1.19-1.47-2.4-2.15-3.63-.41-.75-.81-1.51-1.19-2.27q-.39-.76-.75-1.53-1-2.16.53,1.33c-.3-1.24-.91-2.46-1.26-3.7-.21-.72-.39-1.44-.54-2.18-.3-1.38-.08-3.45.06,1.15,0-1.16-.2-2.29-.18-3.46,0-.67.06-1.34.1-2,.14-2.54-.86,4.37,0,.76.25-1.06.66-2,1-3.08-1.22,4.19-1.11,2.53-.42,1.25a18.63,18.63,0,0,1,1-1.66c.24-.36.53-.71.75-1.08-2.22,3.67-1.61,2-.64,1,.46-.5.95-1,1.45-1.44,2.76-2.52-2.41,1.5-.27.14,1-.67,2.08-1.36,3.18-2a22.94,22.94,0,0,0,2.11-1l-2.1.87c.51-.21,1-.41,1.55-.59A45.84,45.84,0,0,1,51,511.7c.94-.23,1.89-.42,2.84-.6.47-.09,4.57-.77,1.87-.34s.56,0,.92-.08c1-.11,2-.19,2.93-.28,1.78-.15,3.56-.27,5.34-.4,3.61-.26,7.22-.58,10.82-1,8.13-.89,16.24-2,24.28-3.55A238.53,238.53,0,0,0,181.47,474c23.69-14.74,44.73-33.66,59.77-57.31,15.46-24.33,23.07-52.56,24.16-81.22.61-15.86.32-31.83.27-47.7l-15,15,1.78-.15c7.79-.69,15.38-6.41,15-15-.34-7.54-6.63-15.74-15-15l-1.78.15c-8.06.71-15,6.3-15,15,.05,16.75.45,33.64-.38,50.36q-.16,3.19-.43,6.38c-.17,2-.08,4.41-.66,6.33l.25-1.89c-.1.7-.21,1.4-.32,2.1s-.18,1.13-.28,1.69c-.34,2-.71,3.91-1.13,5.85a145.33,145.33,0,0,1-5.3,18.74c-.5,1.41-1,2.8-1.58,4.19-.29.75-.63,1.5-.91,2.26,1.58-4.35.67-1.59.24-.61q-1.95,4.41-4.21,8.68a140,140,0,0,1-9.88,16c-.85,1.19-1.79,2.34-2.62,3.55,2.85-4.2-.35.41-1.15,1.39q-3.09,3.75-6.42,7.31a164.93,164.93,0,0,1-14.38,13.6c-1.08.91-2.16,1.8-3.25,2.67-.66.53-1.35,1-2,1.57,3.41-2.89,1.13-.87.33-.28-2.92,2.19-5.9,4.29-8.93,6.33a218.22,218.22,0,0,1-19.28,11.54q-4.48,2.39-9.09,4.56c-1.52.72-3.06,1.42-4.6,2.11l-2.1.92,1-.44-1.69.7q-10.2,4.15-20.75,7.29-10.15,3-20.53,5.12c-3.33.68-6.68,1.29-10,1.84-1.84.3-3.69.57-5.53.84-3.36.5,3.65-.45.28,0l-3.73.45c-16.28,1.84-33.73,1-48.28,9.76C15.43,496.46,7.21,510.79,9,526.07c1.86,15.6,10.69,30.31,22.07,41C43,578.24,58.28,585.23,73.82,589.9c16,4.8,32.62,6.25,49.21,6.85a436,436,0,0,0,98.09-7.23,354.1,354.1,0,0,0,46.32-12.15c7.46-2.51,14.79-5.35,22.08-8.32a61.23,61.23,0,0,1,10.08-3.12c1.16-.25,2.53,0-2.13.25.57,0,1.13-.11,1.69-.12s1,.1,1.53,0c-3.19-.5-4.05-.6-2.6-.31.28.07.56.15.84.25-3-.33-3.64-1.76-2.06-.75-3.9-2.49-2.9-2.37-2-1.53,1.34,1.29-.09,1.15-1.15-1.63a14.07,14.07,0,0,0,.8,1.32c.68,1.26.64,2.71-.56-1.47.18.63.45,1.25.65,1.87.47,1.47.76,3,1.26,4.44C299,577.53,306,585,315.89,586.79c8.64,1.56,17.4.42,26.09-.13L368.07,585c16.77-1.07,33.66-1.67,50.39-3.24,7.72-.72,15.3-2.4,21.09-8s7.76-13.08,8.14-20.8a59,59,0,0,0-.53-10.11c-.37-3.05-.79-6.09-1.24-9.13-.54-3.61.33,3.52,0,0-.09-1-.21-2-.29-3-.15-2-.23-3.92-.2-5.88,0-1,.05-2,.12-2.92l.08-1q.27-2.47-.17,1.09c.33-.19.93-4.31,1.07-4.82.28-1,.64-1.93,1-2.89.59-1.52.49-1.28-.31.7.29-.62.56-1.24.82-1.86a74,74,0,0,0,6.32-27.93c.24-9.14-1.49-18.32-3.34-27.24-3.38-16.23-8.73-31.92-11.37-48.32l-.48-3.13c-.13-.92-.27-4.41,0-.18-.1-1.74-.43-3.49-.61-5.22q-.67-6.53-1-13.07a217.47,217.47,0,0,1,.28-24.62q.39-5.78,1.08-11.53c.13-1,0-4.28,0-.21a21.2,21.2,0,0,1,.47-3.15q.52-3.42,1.16-6.82c1.56-8.36,3.34-16.69,5.1-25,3.52-16.7,7.23-33.36,11-50,7.43-32.86,15.57-65.66,21.74-98.8a375.7,375.7,0,0,0,6.47-52.1c.7-15.85-.5-31.2-7.39-45.71C470.71,56,458.11,46,445,38A151.91,151.91,0,0,0,399,19.51,206.76,206.76,0,0,0,349,15a239.72,239.72,0,0,0-48.78,5.84c-28,6.6-57,20.83-73.77,45-7.1,10.23-10.59,22.3-11.66,34.6-1.17,13.58,1.92,27.05,5.18,40.13,2.07,8.32,4.13,16.64,5.89,25,.8,3.83,1.54,7.68,2.19,11.54a50.26,50.26,0,0,1,1,6.32c-.17-4.21-.1-.66,0,.24l.36,3.21c1.84,16.92,3.21,33.88,4.45,50.85,1.22,16.62,2.31,33.24,3.59,49.86.6,7.8,6.47,15.38,15,15C260.06,302.3,268.09,296,267.45,287.65Z"/><path class="cls-2" d="M360.07,133.1c12-1.13,24-1.68,35.9-3.2,7.12-.9,14.17-2,21.18-3.55,5.84-1.3,11.64-2.83,17.42-4.4s11.56-3.19,17.38-4.68a27,27,0,0,0,12-6,18.69,18.69,0,0,0,5.15-18,24,24,0,0,0-1.79-4.52,13.87,13.87,0,0,0-2.94-4.19,15.51,15.51,0,0,0-3.48-2.71,21.55,21.55,0,0,0-4.46-1.86c-4.54-1.24-8.73-.87-13.28-.17-5.69.88-11.34,2.4-16.95,3.71-13,3-26.07,6.23-39.35,8l4-.54a255.89,255.89,0,0,1-50,1.9q-7-.45-13.86-1.38l4,.54a175.48,175.48,0,0,1-44.27-11.92l3.59,1.51q-3.6-1.52-7.13-3.2a35.86,35.86,0,0,1-5.85-3.16,26.22,26.22,0,0,0-4.14-2.77A19.07,19.07,0,0,0,263.94,70a17.84,17.84,0,0,0-9.25,2.49,20.3,20.3,0,0,0-6.75,6.73,11.16,11.16,0,0,0-.8,1.39,25.79,25.79,0,0,0-1.94,4.74,18.61,18.61,0,0,0,2,14.61,21.17,21.17,0,0,0,8.16,7.47c1.32.66,2.72,1.16,4,1.84,2.07,1.09,4,2.31,6.16,3.3,3.46,1.63,7,3.08,10.56,4.54q7.23,3,14.68,5.36a204.86,204.86,0,0,0,30.31,7.2,263.85,263.85,0,0,0,39,3.39,15.43,15.43,0,0,0,10.61-4.39,15.23,15.23,0,0,0,4.39-10.61c-.17-3.88-1.45-7.9-4.39-10.61a15.7,15.7,0,0,0-10.61-4.39,243.54,243.54,0,0,1-29.8-2.09l4,.54a205.13,205.13,0,0,1-51.89-14L286,89a114.39,114.39,0,0,1-11.12-5.45c-2-1.12-4.34-1.72-6.2-3.15l3,2.35a8.19,8.19,0,0,1-.79-.77l2.35,3a3.91,3.91,0,0,1-.54-.9l1.51,3.58a4.92,4.92,0,0,1-.21-.84l.54,4a6.18,6.18,0,0,1,0-1l-.53,4a6.61,6.61,0,0,1,.4-1.38l-1.51,3.58a10.14,10.14,0,0,1,1.16-2l-2.34,3a5.53,5.53,0,0,1,.91-.9l-3,2.35a4.47,4.47,0,0,1,.71-.4l-3.59,1.52a3.83,3.83,0,0,1,.72-.19l-4,.54a4.57,4.57,0,0,1,.74,0l-4-.54a5.73,5.73,0,0,1,1.23.33l-3.58-1.51c1.89.82,3.38,2.27,5.08,3.4a57.1,57.1,0,0,0,7.55,3.76A200.57,200.57,0,0,0,291,113.64a196.88,196.88,0,0,0,39.26,8.26,225.42,225.42,0,0,0,36.37,1.18,282.45,282.45,0,0,0,41.31-4.82c7.29-1.41,14.53-3.11,21.77-4.8,3.62-.85,7.24-1.71,10.87-2.53s7-1.72,10.57-2.23l-4,.54a17.27,17.27,0,0,1,4.19,0l-4-.54a7.84,7.84,0,0,1,1.59.38l-3.58-1.51a3.1,3.1,0,0,1,.57.3l-3-2.35a2.16,2.16,0,0,1,.27.25l-2.35-3a6,6,0,0,1,.6,1.15l-1.51-3.58a6.35,6.35,0,0,1,.32,1.23l-.54-4a4.59,4.59,0,0,1,0,.83l.53-4a3.73,3.73,0,0,1-.18.75l1.51-3.58a3.9,3.9,0,0,1-.5.89l2.35-3a6.14,6.14,0,0,1-.77.76l3-2.34a8.77,8.77,0,0,1-1.86,1.06l3.59-1.51a53.61,53.61,0,0,1-6.22,1.74c-2.2.57-4.39,1.17-6.58,1.76-4.54,1.24-9.07,2.5-13.61,3.69a229.16,229.16,0,0,1-27.53,5.72l4-.54c-12.39,1.66-24.89,2.21-37.34,3.39a16.64,16.64,0,0,0-10.6,4.39,15.26,15.26,0,0,0-4.4,10.61c.18,3.88,1.45,7.9,4.4,10.61C352.24,131.25,356.17,133.47,360.07,133.1Z"/><path class="cls-2" d="M412.25,427.63l-3-.28a16.64,16.64,0,0,0-10.6,4.39,15.57,15.57,0,0,0-4.4,10.61,83.56,83.56,0,0,1-.71,11.5l.54-4a63.84,63.84,0,0,1-4.21,15.83l1.51-3.59a53.27,53.27,0,0,1-7,12l2.35-3a56.74,56.74,0,0,1-9.9,9.81l3-2.34a73.2,73.2,0,0,1-16.14,9.24l3.59-1.51q-3.24,1.35-6.55,2.47c-3.55,1.21-7.15,3.46-9,6.9l-1.52,3.58a11.37,11.37,0,0,0-.26,6,7.43,7.43,0,0,0,1,3.79,11.2,11.2,0,0,0,3.1,4.82,16.19,16.19,0,0,0,10.61,4.4c16.16.72,32.76-.67,48.27-5.45,3.75-1.16,7.72-2.46,10.94-4.75a26.83,26.83,0,0,0,5.43-4.64,25.11,25.11,0,0,0,5.19-9.28c1.65-5.8.3-11.55-.67-17.32-.65-3.87-1.35-7.73-2.07-11.59-1.66-8.84-3.45-17.66-5.13-26.5-.66-3.52-3.89-7.21-6.89-9a15.36,15.36,0,0,0-11.56-1.51c-3.63,1.18-7.13,3.43-9,6.9l-1.52,3.58a15.18,15.18,0,0,0,0,8c2.76,14.57,6.08,29.1,8.11,43.8l-.53-4a12.13,12.13,0,0,1,0,2.41l.53-4a8.82,8.82,0,0,1-.55,2.09l1.51-3.58a9.74,9.74,0,0,1-1,1.8l2.35-3a12,12,0,0,1-1.91,1.93l3-2.35a18.32,18.32,0,0,1-3.89,2.23l3.58-1.51a68.09,68.09,0,0,1-10.37,3.14,116.37,116.37,0,0,1-11.44,2.14l4-.53a149.66,149.66,0,0,1-26.43,1l4,29.46c12.65-4.3,24.66-10.51,34.3-19.9a69.27,69.27,0,0,0,18.51-32.4,93.11,93.11,0,0,0,2.68-23l-15,15,3,.28c3.62.33,8.13-1.92,10.61-4.4a15.23,15.23,0,0,0,4.39-10.6c-.18-3.88-1.45-7.91-4.39-10.61l-3-2.35A15,15,0,0,0,412.25,427.63Z"/><path class="cls-3" d="M200.82,224.07c.12-17.3,4.71-22.11,22-22.14q83.31-.13,166.63,0C406,202,411,206.79,411,223.31q.23,69.53,0,139.06c-.05,16.49-5,21.22-21.68,21.32-24.37.14-48.75,0-73.12,0-31.57,0-63.14.11-94.71-.06-15.65-.09-20.51-5.26-20.67-21-.07-6.67,0-13.34,0-21.63h0A32.79,32.79,0,0,1,168,308.26V276.88a32.79,32.79,0,0,1,32.79-32.79h0C200.82,236.63,200.78,230.35,200.82,224.07Zm32.53,117.56v18.6H359.81V310.45c12.72-2.73,28.12.15,28.44-18.15.19-10.8-5.68-14.3-27.44-16.75V225.28H233.45v18.57h104v32.08c-7.34,3.39-16.31,5.8-16,17.37.3,10.89,8.9,13,16.48,16.55v31.78Zm182-97.26c51.9-.05,103.81-.19,155.72,0,11.91,0,16.92,5.73,17,18.11.16,18.77.07,37.53,0,56.3,0,18.49-4,22.52-22.35,22.54q-71.88.06-143.75,0c-3.84,0-7.67-.4-11.78-.63V245.18A36.17,36.17,0,0,1,415.4,244.37Zm113.7,65.08a16.65,16.65,0,0,0,.19-33.27,16.64,16.64,0,1,0-.19,33.27Zm-66.42-17.11c-.27-8.94-8.53-16.59-17.44-16.17a16.65,16.65,0,0,0,.92,33.27C455.13,309.34,462.94,301.26,462.68,292.34Z"/><path class="cls-2" d="M215.82,224.07a62.81,62.81,0,0,1,.45-7.51l-.53,4a24.25,24.25,0,0,1,1.54-6.11L215.77,218a13.87,13.87,0,0,1,1.73-3l-2.35,3a11.63,11.63,0,0,1,1.92-1.92l-3,2.35a13.27,13.27,0,0,1,3-1.72l-3.59,1.51a24.23,24.23,0,0,1,5.86-1.48l-4,.54a108.67,108.67,0,0,1,14.21-.44l18.45,0,37.17,0q36.92,0,73.84,0l20.95,0c5.55,0,11.2-.29,16.72.44l-4-.53a23.9,23.9,0,0,1,5.75,1.45l-3.59-1.51a13.77,13.77,0,0,1,3.07,1.77l-3-2.35a12.59,12.59,0,0,1,2,2l-2.35-3a13.77,13.77,0,0,1,1.67,2.88l-1.51-3.59a23.7,23.7,0,0,1,1.52,6l-.53-4a92.24,92.24,0,0,1,.42,11.64q0,7.84,0,15.7,0,15.69.05,31.4,0,31.39,0,62.8,0,8.71-.05,17.44a108.78,108.78,0,0,1-.43,13.87l.54-4A23.76,23.76,0,0,1,394.7,371l1.51-3.59a13.74,13.74,0,0,1-1.76,3.07l2.35-3a12.59,12.59,0,0,1-2,2l3-2.34a14.51,14.51,0,0,1-2.88,1.67l3.58-1.51a24,24,0,0,1-6,1.54l4-.54a110.62,110.62,0,0,1-14.22.48q-9.21,0-18.41,0-18.52,0-37.06,0c-24.58,0-49.16,0-73.74,0q-10.35,0-20.69,0c-5.73,0-11.58.31-17.27-.45l4,.54a23.89,23.89,0,0,1-5.63-1.44l3.59,1.51a14.5,14.5,0,0,1-3-1.7l3,2.34a12.12,12.12,0,0,1-2-2l2.35,3a13.81,13.81,0,0,1-1.82-3.16l1.51,3.58a24.07,24.07,0,0,1-1.49-5.91l.54,4a95,95,0,0,1-.44-12.4c0-5.2,0-10.39,0-15.59a15.23,15.23,0,0,0-15-15,34,34,0,0,1-4.51-.3l4,.53a33.59,33.59,0,0,1-8.11-2.2l3.59,1.51a34.08,34.08,0,0,1-7.39-4.29l3,2.35a34.07,34.07,0,0,1-6-6l2.35,3a34.08,34.08,0,0,1-4.29-7.39l1.51,3.59a34.06,34.06,0,0,1-2.2-8.11l.53,4c-.62-4.74-.3-9.69-.3-14.46V279.56a55.72,55.72,0,0,1,.3-7.19l-.53,4a33.85,33.85,0,0,1,2.2-8.1l-1.51,3.58a33.78,33.78,0,0,1,4.29-7.38l-2.35,3a34,34,0,0,1,6-6l-3,2.34a34.08,34.08,0,0,1,7.39-4.29l-3.59,1.52a34.08,34.08,0,0,1,8.11-2.21l-4,.54a34.06,34.06,0,0,1,4.51-.31,15.22,15.22,0,0,0,15-15c0-6.67,0-13.35,0-20a15.45,15.45,0,0,0-4.39-10.61,15.23,15.23,0,0,0-10.61-4.39c-3.88.17-7.9,1.45-10.6,4.39a15.69,15.69,0,0,0-4.4,10.61c0,6.67,0,13.35,0,20l15-15a47.66,47.66,0,0,0-39.91,21.55,47.43,47.43,0,0,0-7.66,22.41,63.34,63.34,0,0,0-.22,7.29v22.29c0,1.88,0,3.75,0,5.62a49.12,49.12,0,0,0,5.83,22.88c8,15.22,24.84,24.91,42,24.91l-15-15c0,5.74,0,11.48,0,17.21a87.14,87.14,0,0,0,1.28,16.68,30.89,30.89,0,0,0,7.19,14.19c3.33,3.87,8.48,6.49,13.32,7.87,5.12,1.47,10.61,1.66,15.91,1.69l19.44.07q19.19,0,38.38,0,38.58,0,77.17,0,9.7,0,19.4,0c5.49,0,11.05.2,16.53-.26,6-.51,11.13-1.5,16.5-4.19a13.6,13.6,0,0,0,1.68-1,36.25,36.25,0,0,0,4.42-3.49,24.84,24.84,0,0,0,4.55-6c5.29-10.12,4.45-21.79,4.48-32.84q0-19.44.07-38.88,0-38.62-.07-77.26c0-11.08.8-22.73-4.47-32.88a24.94,24.94,0,0,0-4.55-6.06,35.15,35.15,0,0,0-4.33-3.44,13.11,13.11,0,0,0-1.76-1.07c-5.36-2.71-10.5-3.7-16.47-4.19-5.48-.46-11.05-.21-16.54-.22l-19.46,0-38.67,0q-38.66,0-77.32,0-9.61,0-19.21,0A61.84,61.84,0,0,0,208,188.52a28.82,28.82,0,0,0-13.27,7.4,29.17,29.17,0,0,0-7.34,13.35,62.86,62.86,0,0,0-1.61,14.8,15.44,15.44,0,0,0,4.4,10.61,15.23,15.23,0,0,0,10.6,4.39c3.88-.17,7.91-1.45,10.61-4.39A15.66,15.66,0,0,0,215.82,224.07Z"/><path class="cls-2" d="M218.35,341.63v18.6a15.22,15.22,0,0,0,15,15H359.81a15.22,15.22,0,0,0,15-15V310.45l-11,14.46c1.61-.34,3.24-.59,4.87-.81l-4,.54c3.76-.5,7.54-.91,11.3-1.46a36.1,36.1,0,0,0,6.81-1.54,32,32,0,0,0,11.73-6.81,26.65,26.65,0,0,0,4.31-5.39,29.7,29.7,0,0,0,2.94-6.68,40.21,40.21,0,0,0,1.32-7.77,26.65,26.65,0,0,0,.16-4.09,46.35,46.35,0,0,0-.8-6.54,12.57,12.57,0,0,0-.64-2.33,26.27,26.27,0,0,0-2.53-5.53,27.44,27.44,0,0,0-3.8-4.74,27,27,0,0,0-7.52-5.13,56,56,0,0,0-11.5-3.81c-5.16-1.05-10.41-1.67-15.64-2.27l15,15V225.28a15.22,15.22,0,0,0-15-15H233.45a15.22,15.22,0,0,0-15,15v18.57a15.22,15.22,0,0,0,15,15h104l-15-15v32.08L329.85,263A82.43,82.43,0,0,0,321,267.2c-4.63,2.82-9.17,6.9-11.43,11.94a31.84,31.84,0,0,0-2.21,5.77,38.85,38.85,0,0,0-.92,6.87,20.28,20.28,0,0,0,.08,3,37.57,37.57,0,0,0,1.05,6.65,29.2,29.2,0,0,0,6,10.81,30.06,30.06,0,0,0,6.27,5.36c3.22,2.25,7,3.55,10.52,5.18l-7.43-12.95v31.78l15-15H233.35a15.48,15.48,0,0,0-10.61,4.4,15.23,15.23,0,0,0-4.39,10.6c.17,3.88,1.44,7.91,4.39,10.61a15.55,15.55,0,0,0,10.61,4.39H337.9a15.22,15.22,0,0,0,15-15V309.85a15,15,0,0,0-7.43-13c-3.79-1.75-7.83-3.14-11.19-5.68l3,2.34a14.6,14.6,0,0,1-2.57-2.52l2.35,3a13.11,13.11,0,0,1-1.6-2.73l1.51,3.59a15.86,15.86,0,0,1-1-3.77l.53,4a20.74,20.74,0,0,1,0-4.79l-.54,4a15.35,15.35,0,0,1,1-3.65l-1.51,3.58a14,14,0,0,1,1.55-2.67l-2.34,3a15.05,15.05,0,0,1,2.69-2.66l-3,2.34c3.2-2.42,7-3.78,10.65-5.44a15.1,15.1,0,0,0,5.38-5.39,14.91,14.91,0,0,0,2.05-7.57V243.85a15.22,15.22,0,0,0-15-15h-104l15,15V225.28l-15,15H360.81l-15-15v50.27a15.27,15.27,0,0,0,4.4,10.61l3,2.35a14.93,14.93,0,0,0,7.57,2c1.42.16,2.84.34,4.25.52l-4-.53c5.12.69,10.4,1.46,15.2,3.46l-3.58-1.51a17.43,17.43,0,0,1,3.76,2.13l-3-2.35a11,11,0,0,1,1.88,1.86l-2.34-3a10.88,10.88,0,0,1,1.29,2.18l-1.52-3.58a13.09,13.09,0,0,1,.88,3.3l-.54-4a25.63,25.63,0,0,1-.06,6.49l.53-4a18.56,18.56,0,0,1-1.2,4.57l1.51-3.59a13.09,13.09,0,0,1-1.64,2.8l2.35-3a13,13,0,0,1-2.15,2.11l3-2.35a15.25,15.25,0,0,1-3.22,1.82l3.58-1.51a36,36,0,0,1-8.88,2.08l4-.54c-5,.67-10.13,1.07-15.1,2.12l-3.58,1.52a11.34,11.34,0,0,0-4.21,3.86,14.77,14.77,0,0,0-3.22,9.09v49.78l15-15H233.35l15,15v-18.6A15.48,15.48,0,0,0,244,331a15.28,15.28,0,0,0-10.6-4.4c-3.88.18-7.91,1.45-10.61,4.4A15.54,15.54,0,0,0,218.35,341.63Z"/><path class="cls-2" d="M415.4,259.37l63.13-.08q31.58,0,63.14,0l17.47.05c3,0,6,0,9,0a54,54,0,0,1,6.85.25l-4-.54a20.12,20.12,0,0,1,4.78,1.23l-3.58-1.51a13.18,13.18,0,0,1,2.93,1.7l-3-2.35a12.78,12.78,0,0,1,2,2l-2.34-3a14.52,14.52,0,0,1,1.83,3.17L572,256.69a22.38,22.38,0,0,1,1.33,5.16l-.54-4a102.15,102.15,0,0,1,.37,12.86q0,7.61,0,15.2c0,10,0,20.09,0,30.14a91.24,91.24,0,0,1-.49,11.57l.53-4a23,23,0,0,1-1.44,5.73l1.51-3.59a12.33,12.33,0,0,1-1.6,2.77l2.35-3a11,11,0,0,1-1.78,1.77l3-2.35a12.82,12.82,0,0,1-2.79,1.59l3.59-1.52a23.69,23.69,0,0,1-5.76,1.42l4-.54a90,90,0,0,1-11.26.46H513.43q-33.19,0-66.38,0H428.58c-3.08,0-6.17.06-9.25-.07s-6-.4-9-.57l15,15V245.18l-11,14.47c1.35-.24,2.68-.57,4-.75l-4,.54c.35,0,.69-.06,1-.07A15.61,15.61,0,0,0,426,255a15.28,15.28,0,0,0,4.4-10.6c-.18-3.88-1.45-7.91-4.4-10.61a15.27,15.27,0,0,0-10.6-4.39,60.33,60.33,0,0,0-9.07,1.35l-3.59,1.51a11.31,11.31,0,0,0-4.2,3.86,14.72,14.72,0,0,0-3.23,9.09v95.51a15.25,15.25,0,0,0,4.4,10.6,16.33,16.33,0,0,0,10.6,4.4c3.93.23,7.85.61,11.78.63,4.16,0,8.32,0,12.48,0l24.46,0q24.71,0,49.41,0,24.45,0,48.91,0c12.57,0,27.63,1.05,37.21-8.8s8.62-24.87,8.65-37.71q0-12.21,0-24.41c0-8,.15-16-.12-24a42.78,42.78,0,0,0-1.62-11.25A30.74,30.74,0,0,0,595,238.56a22.67,22.67,0,0,0-7.43-5.55,35,35,0,0,0-6.32-2.43,49.88,49.88,0,0,0-7.49-1.08c-3.67-.31-7.42-.13-11.11-.14l-12,0-24.95,0q-49.17,0-98.33.07l-12,0a15.47,15.47,0,0,0-10.61,4.39,15.23,15.23,0,0,0-4.39,10.61c.17,3.88,1.44,7.9,4.39,10.6A15.56,15.56,0,0,0,415.4,259.37Z"/><path class="cls-2" d="M529.1,324.45a30.51,30.51,0,0,0,9.14-1.43,29.87,29.87,0,0,0,8-3.9,40.77,40.77,0,0,0,4.75-3.85,40.08,40.08,0,0,0,3.92-4.9,30.49,30.49,0,0,0,3.86-8.13,32,32,0,0,0,.13-18.45c-1.65-5.46-4.79-11-9.23-14.65a41.14,41.14,0,0,0-4.86-3.62,39.14,39.14,0,0,0-5.73-2.6,31.1,31.1,0,0,0-9-1.7,14.94,14.94,0,0,0-2.59,0,41.37,41.37,0,0,0-6.64,1,29.5,29.5,0,0,0-8.1,3.42c-4.93,3-9.52,7.58-11.92,12.9a42.89,42.89,0,0,0-2.29,5.78,41.7,41.7,0,0,0-1,6.49,31.16,31.16,0,0,0,.75,9.33,17.7,17.7,0,0,0,.86,2.88,39.68,39.68,0,0,0,2.68,5.95A29.23,29.23,0,0,0,508,316.4a38.9,38.9,0,0,0,5.18,3.82,40.81,40.81,0,0,0,5.94,2.63,28.26,28.26,0,0,0,9.94,1.6,15.48,15.48,0,0,0,10.6-4.4,15.28,15.28,0,0,0,4.4-10.6c-.18-3.88-1.45-7.91-4.4-10.61a15.59,15.59,0,0,0-10.6-4.39,19.21,19.21,0,0,1-2.4-.15l4,.53a17.13,17.13,0,0,1-4.16-1.15l3.58,1.51a17.79,17.79,0,0,1-3.64-2.15l3,2.34a17.88,17.88,0,0,1-3-3l2.35,3a17.89,17.89,0,0,1-2.15-3.68l1.51,3.59a18,18,0,0,1-1.15-4.2l.53,4a18.31,18.31,0,0,1,0-4.5l-.53,4a17.53,17.53,0,0,1,1.12-4.22L526.68,294a17.77,17.77,0,0,1,2.31-4l-2.34,3a18.2,18.2,0,0,1,3-2.95l-3,2.34a18.26,18.26,0,0,1,3.67-2.1l-3.59,1.51a18.36,18.36,0,0,1,3.84-1.05l-4,.54a17.83,17.83,0,0,1,4.44,0l-4-.53a17.21,17.21,0,0,1,4.13,1.08l-3.58-1.51a17.57,17.57,0,0,1,3.6,2.06l-3-2.34a17.48,17.48,0,0,1,2.94,2.89l-2.35-3A17.72,17.72,0,0,1,531,293.8l-1.51-3.58a18.07,18.07,0,0,1,1.12,4.15l-.54-4a18.82,18.82,0,0,1,0,4.86l.54-4a18.56,18.56,0,0,1-1.17,4.26l1.51-3.59a17.92,17.92,0,0,1-2.16,3.69l2.34-3a17.21,17.21,0,0,1-3,3l3-2.35a17,17,0,0,1-3.37,2l3.58-1.51a17.22,17.22,0,0,1-4.17,1.16l4-.54a20.4,20.4,0,0,1-2.06.16,15.58,15.58,0,0,0-10.61,4.39,15.23,15.23,0,0,0-4.39,10.61c.17,3.88,1.44,7.9,4.39,10.6A15.38,15.38,0,0,0,529.1,324.45Z"/><path class="cls-2" d="M477.68,292.34a29.32,29.32,0,0,0-1.57-9.08,45.85,45.85,0,0,0-2.46-5.61,38.67,38.67,0,0,0-3.75-5.21,32.51,32.51,0,0,0-6.73-6,31.65,31.65,0,0,0-8.14-3.91,28.73,28.73,0,0,0-8.92-1.4,37.58,37.58,0,0,0-6.26.68,17.36,17.36,0,0,0-2.85.67c-5.57,1.87-11,5-14.69,9.65a42.57,42.57,0,0,0-3.68,5,43.08,43.08,0,0,0-2.55,5.74,29.65,29.65,0,0,0-1.65,9,30.36,30.36,0,0,0,4.74,17.34c3.17,4.84,7.55,9.35,12.9,11.75a43.07,43.07,0,0,0,5.66,2.26,39.81,39.81,0,0,0,6.52,1,28.71,28.71,0,0,0,9.19-.83,28.41,28.41,0,0,0,8.82-3.74,30.89,30.89,0,0,0,7.37-6.26,41.69,41.69,0,0,0,3.89-5.32,42.64,42.64,0,0,0,2.67-6.08,16.4,16.4,0,0,0,.75-2.83,38.47,38.47,0,0,0,.74-6.94,15.63,15.63,0,0,0-4.39-10.61,15.25,15.25,0,0,0-10.61-4.39c-3.88.17-7.9,1.45-10.61,4.39a15.43,15.43,0,0,0-4.39,10.61,18.14,18.14,0,0,1-.13,2.44l.54-4a17.25,17.25,0,0,1-1.08,4l1.51-3.58a18.92,18.92,0,0,1-2.24,3.87l2.35-3a19,19,0,0,1-3.42,3.4l3-2.34a19.06,19.06,0,0,1-3.57,2.09l3.58-1.51a16.77,16.77,0,0,1-4.33,1.19l4-.53a16.44,16.44,0,0,1-3.84,0l4,.54a17,17,0,0,1-4.27-1.16l3.58,1.52a19,19,0,0,1-3.79-2.23l3,2.34a18.19,18.19,0,0,1-3.1-3.1l2.35,3a18.12,18.12,0,0,1-2.23-3.8l1.51,3.59a17.81,17.81,0,0,1-1.16-4.29l.54,4a16.71,16.71,0,0,1,0-4.18l-.54,4a17.76,17.76,0,0,1,1.11-4l-1.51,3.58a18.52,18.52,0,0,1,2.23-3.82l-2.34,3a18.54,18.54,0,0,1,3.13-3.13l-3,2.35a18.3,18.3,0,0,1,3.82-2.24l-3.58,1.51a17.14,17.14,0,0,1,4-1.09l-4,.53a16.25,16.25,0,0,1,4.18,0l-4-.54a17.24,17.24,0,0,1,4,1.1l-3.59-1.52a18.77,18.77,0,0,1,3.88,2.25l-3-2.35a19.31,19.31,0,0,1,3.41,3.41l-2.34-3a18.67,18.67,0,0,1,2.09,3.56l-1.51-3.58a17.49,17.49,0,0,1,1.19,4.33l-.54-4c.05.47.09.93.11,1.4A15.76,15.76,0,0,0,452.07,303a15.23,15.23,0,0,0,10.61,4.39c3.88-.17,7.9-1.45,10.61-4.39S477.85,296.34,477.68,292.34Z"/><path class="cls-4" d="M337.9,341.63H233.35v18.6H359.81V310.45c12.72-2.73,28.12.15,28.44-18.15.19-10.8-5.68-14.3-27.44-16.75V225.28H233.45v18.57h104v32.08c-7.34,3.39-16.31,5.8-16,17.37.3,10.89,8.9,13,16.48,16.55Z"/><path class="cls-2" d="M337.9,326.63H233.35a15.22,15.22,0,0,0-15,15v18.6a15.22,15.22,0,0,0,15,15H359.81a15.22,15.22,0,0,0,15-15V310.45l-11,14.46c1.61-.34,3.24-.59,4.87-.81l-4,.54c3.76-.5,7.54-.91,11.3-1.46a36.1,36.1,0,0,0,6.81-1.54,32,32,0,0,0,11.73-6.81,26.65,26.65,0,0,0,4.31-5.39,29.7,29.7,0,0,0,2.94-6.68,40.21,40.21,0,0,0,1.32-7.77,26.65,26.65,0,0,0,.16-4.09,46.35,46.35,0,0,0-.8-6.54,12.57,12.57,0,0,0-.64-2.33,26.27,26.27,0,0,0-2.53-5.53,27.44,27.44,0,0,0-3.8-4.74,27,27,0,0,0-7.52-5.13,56,56,0,0,0-11.5-3.81c-5.16-1.05-10.41-1.67-15.64-2.27l15,15V225.28a15.22,15.22,0,0,0-15-15H233.45a15.22,15.22,0,0,0-15,15v18.57a15.22,15.22,0,0,0,15,15h104l-15-15v32.08L329.85,263A82.43,82.43,0,0,0,321,267.2c-4.63,2.82-9.17,6.9-11.43,11.94a31.84,31.84,0,0,0-2.21,5.77,38.85,38.85,0,0,0-.92,6.87,20.28,20.28,0,0,0,.08,3,37.57,37.57,0,0,0,1.05,6.65,29.2,29.2,0,0,0,6,10.81,30.06,30.06,0,0,0,6.27,5.36c3.22,2.25,7,3.55,10.52,5.18l-7.43-12.95v31.78a15.48,15.48,0,0,0,4.4,10.61,15.23,15.23,0,0,0,10.6,4.39c3.88-.17,7.91-1.44,10.61-4.39a15.59,15.59,0,0,0,4.39-10.61V309.85a15,15,0,0,0-7.43-13c-3.79-1.75-7.83-3.14-11.19-5.68l3,2.34a14.6,14.6,0,0,1-2.57-2.52l2.35,3a13.11,13.11,0,0,1-1.6-2.73l1.51,3.59a15.86,15.86,0,0,1-1-3.77l.53,4a20.74,20.74,0,0,1,0-4.79l-.54,4a15.35,15.35,0,0,1,1-3.65l-1.51,3.58a14,14,0,0,1,1.55-2.67l-2.34,3a15.05,15.05,0,0,1,2.69-2.66l-3,2.34c3.2-2.42,7-3.78,10.65-5.44a15.1,15.1,0,0,0,5.38-5.39,14.91,14.91,0,0,0,2.05-7.57V243.85a15.22,15.22,0,0,0-15-15h-104l15,15V225.28l-15,15H360.81l-15-15v50.27a15.27,15.27,0,0,0,4.4,10.61l3,2.35a14.93,14.93,0,0,0,7.57,2c1.42.16,2.84.34,4.25.52l-4-.53c5.12.69,10.4,1.46,15.2,3.46l-3.58-1.51a17.43,17.43,0,0,1,3.76,2.13l-3-2.35a11,11,0,0,1,1.88,1.86l-2.34-3a10.88,10.88,0,0,1,1.29,2.18l-1.52-3.58a13.09,13.09,0,0,1,.88,3.3l-.54-4a25.63,25.63,0,0,1-.06,6.49l.53-4a18.56,18.56,0,0,1-1.2,4.57l1.51-3.59a13.09,13.09,0,0,1-1.64,2.8l2.35-3a13,13,0,0,1-2.15,2.11l3-2.35a15.25,15.25,0,0,1-3.22,1.82l3.58-1.51a36,36,0,0,1-8.88,2.08l4-.54c-5,.67-10.13,1.07-15.1,2.12l-3.58,1.52a11.34,11.34,0,0,0-4.21,3.86,14.77,14.77,0,0,0-3.22,9.09v49.78l15-15H233.35l15,15v-18.6l-15,15H337.9a15.47,15.47,0,0,0,10.61-4.39,15.23,15.23,0,0,0,4.39-10.61c-.17-3.87-1.45-7.9-4.39-10.6A15.57,15.57,0,0,0,337.9,326.63Z"/><path class="cls-4" d="M512.46,292.7a16.59,16.59,0,0,0,16.64,16.75,16.65,16.65,0,0,0,.19-33.27A16.53,16.53,0,0,0,512.46,292.7Z"/><path class="cls-2" d="M497.46,292.7c0,5.93,1.66,12.45,5.12,17.34a33.19,33.19,0,0,0,16.58,12.81,29.38,29.38,0,0,0,8.9,1.57,18.19,18.19,0,0,0,2.76-.08,38.18,38.18,0,0,0,6.63-1.07,29.26,29.26,0,0,0,8-3.59,30.29,30.29,0,0,0,6.72-5.75,29.22,29.22,0,0,0,6.25-10.75,31.31,31.31,0,0,0,1.71-9.15,17.63,17.63,0,0,0,0-2.62,44,44,0,0,0-.95-6.66,19.85,19.85,0,0,0-.81-2.51,41.45,41.45,0,0,0-2.52-5.61,42.16,42.16,0,0,0-3.6-4.89,18.13,18.13,0,0,0-1.84-2,29.21,29.21,0,0,0-7.14-5.07,44.72,44.72,0,0,0-5.7-2.31,31.19,31.19,0,0,0-4.6-.81,32.34,32.34,0,0,0-11.08.42,17,17,0,0,0-2.87.81,39.35,39.35,0,0,0-5.93,2.66,28.75,28.75,0,0,0-7.46,6.12,35.25,35.25,0,0,0-6.5,11.14,17.18,17.18,0,0,0-.84,2.9,42.11,42.11,0,0,0-.84,7.08,15.39,15.39,0,0,0,4.4,10.61,15.23,15.23,0,0,0,10.6,4.39c3.88-.17,7.91-1.45,10.61-4.39a15.75,15.75,0,0,0,4.39-10.61,20.56,20.56,0,0,1,.14-2.08l-.53,4a17.53,17.53,0,0,1,1.12-4.22L526.68,294a17.77,17.77,0,0,1,2.31-4l-2.34,3a18.2,18.2,0,0,1,3-2.95l-3,2.34a18.26,18.26,0,0,1,3.67-2.1l-3.59,1.51a18.36,18.36,0,0,1,3.84-1.05l-4,.54a17.83,17.83,0,0,1,4.44,0l-4-.53a17.21,17.21,0,0,1,4.13,1.08l-3.58-1.51a17.57,17.57,0,0,1,3.6,2.06l-3-2.34a17.48,17.48,0,0,1,2.94,2.89l-2.35-3A17.72,17.72,0,0,1,531,293.8l-1.51-3.58a18.07,18.07,0,0,1,1.12,4.15l-.54-4a18.82,18.82,0,0,1,0,4.86l.54-4a18.56,18.56,0,0,1-1.17,4.26l1.51-3.59a17.92,17.92,0,0,1-2.16,3.69l2.34-3a17.21,17.21,0,0,1-3,3l3-2.35a17,17,0,0,1-3.37,2l3.58-1.51a17.22,17.22,0,0,1-4.17,1.16l4-.54a18,18,0,0,1-4.46,0l4,.53a17.13,17.13,0,0,1-4.16-1.15l3.58,1.51a17.79,17.79,0,0,1-3.64-2.15l3,2.34a17.88,17.88,0,0,1-3-3l2.35,3a17.89,17.89,0,0,1-2.15-3.68l1.51,3.59a18,18,0,0,1-1.15-4.2l.53,4a21.53,21.53,0,0,1-.16-2.42,15.47,15.47,0,0,0-4.39-10.6,15.24,15.24,0,0,0-10.61-4.4c-3.88.18-7.9,1.45-10.6,4.4A15.53,15.53,0,0,0,497.46,292.7Z"/><path class="cls-4" d="M446.16,309.44c9-.1,16.78-8.18,16.52-17.1s-8.53-16.59-17.44-16.17a16.65,16.65,0,0,0,.92,33.27Z"/><path class="cls-2" d="M446.16,324.44A30.45,30.45,0,0,0,463.39,319a44.29,44.29,0,0,0,4.73-3.81,40,40,0,0,0,4.07-5,32.11,32.11,0,0,0,4-8.09,17,17,0,0,0,.65-2.32,39.37,39.37,0,0,0,.84-6.57A37.76,37.76,0,0,0,477,287a16.77,16.77,0,0,0-.65-2.87c-1.8-5.59-5-11.11-9.63-14.84a43.55,43.55,0,0,0-5-3.72,40.5,40.5,0,0,0-5.74-2.59,29.69,29.69,0,0,0-9-1.74,15.39,15.39,0,0,0-2.63.05,41.38,41.38,0,0,0-6.54,1,29.61,29.61,0,0,0-8.24,3.63c-4.87,3.18-9.39,7.59-11.79,13a42,42,0,0,0-2.26,5.68,41.22,41.22,0,0,0-1,6.54,28.4,28.4,0,0,0,.84,9.18,30.48,30.48,0,0,0,9.8,16.07,41.28,41.28,0,0,0,5.27,3.87,39.51,39.51,0,0,0,6,2.67,28,28,0,0,0,9.72,1.56,15.52,15.52,0,0,0,10.61-4.39,15.25,15.25,0,0,0,4.39-10.61c-.17-3.88-1.45-7.9-4.39-10.61a15.61,15.61,0,0,0-10.61-4.39,18.31,18.31,0,0,1-2.09-.12l4,.54a17,17,0,0,1-4.27-1.16l3.58,1.52a19,19,0,0,1-3.79-2.23l3,2.34a18.19,18.19,0,0,1-3.1-3.1l2.35,3a18.12,18.12,0,0,1-2.23-3.8l1.51,3.59a17.81,17.81,0,0,1-1.16-4.29l.54,4a16.71,16.71,0,0,1,0-4.18l-.54,4a17.76,17.76,0,0,1,1.11-4l-1.51,3.58a18.52,18.52,0,0,1,2.23-3.82l-2.34,3a18.54,18.54,0,0,1,3.13-3.13l-3,2.35a18.3,18.3,0,0,1,3.82-2.24l-3.58,1.51a17.14,17.14,0,0,1,4-1.09l-4,.53a16.25,16.25,0,0,1,4.18,0l-4-.54a17.24,17.24,0,0,1,4,1.1l-3.59-1.52a18.77,18.77,0,0,1,3.88,2.25l-3-2.35a19.31,19.31,0,0,1,3.41,3.41l-2.34-3a18.67,18.67,0,0,1,2.09,3.56l-1.51-3.58a17.49,17.49,0,0,1,1.19,4.33l-.54-4a15.91,15.91,0,0,1,0,3.84l.54-4a17.25,17.25,0,0,1-1.08,4l1.51-3.58a18.92,18.92,0,0,1-2.24,3.87l2.35-3a19,19,0,0,1-3.42,3.4l3-2.34a19.06,19.06,0,0,1-3.57,2.09l3.58-1.51a16.77,16.77,0,0,1-4.33,1.19l4-.53a17,17,0,0,1-1.75.12,15.63,15.63,0,0,0-10.61,4.39,15.23,15.23,0,0,0-4.39,10.61c.17,3.88,1.45,7.9,4.39,10.61A15.34,15.34,0,0,0,446.16,324.44Z"/><path class="cls-5" d="M252.45,287.65c-2.65-34.3-4.48-68.69-8.28-102.87-2.08-18.68-7-37.11-11.53-55.43-8.9-36.08,1.3-60.47,33.73-79.27,21.2-12.29,44.49-17.52,68.47-19.34,29.08-2.21,58-.38,85.24,11.25A135.38,135.38,0,0,1,449.5,59.27c14.67,11.39,20.57,27.15,20.57,45.94,0,32.73-7,64.29-14,95.91-9.91,44.67-20.61,89.18-29.53,134.05-7.09,35.65-5.26,71.38,4.89,106.55a259.82,259.82,0,0,1,7,30.56c1.94,12,1,24.11-4.18,35.2-4.48,9.61-4.36,19.22-2.92,29.21a111.94,111.94,0,0,1,1.42,13.4c.23,12-3.76,16-15.76,16.79q-41.84,2.64-83.68,5.33a81.26,81.26,0,0,1-12,.29c-5.94-.51-9.84-3.24-11.47-9.74-2.85-11.45-6.62-13.43-17.76-10.48a97,97,0,0,0-11.16,4.21c-54.78,21.82-111.88,28.21-170.24,24.66-18.37-1.12-36.4-5.33-53.19-13.78A65,65,0,0,1,27.56,537.1c-8.31-16.93-2.84-32.12,14.87-38.5,6.88-2.48,14.6-3,22-3.56,44.2-3.11,85-15.91,121.28-41.86,34-24.33,56.23-56.8,62.88-98.11,3.14-19.53,1.54-39.83,2.06-59.78.07-2.49,0-5,0-7.49ZM360.07,118.1c14.86-1.41,29.89-1.91,44.54-4.5,15.1-2.66,29.84-7.4,44.76-11.15,4-1,6.81-3.2,4.47-7.19-.79-1.35-5.1-1.38-7.57-.88-19.46,3.93-38.69,9.65-58.33,12-40.14,4.7-79.62,1.93-116.56-17-3.37-1.73-7.81-7.81-11.13-1.4-3,5.82,4,6.72,7.41,8.84A76.52,76.52,0,0,0,278.39,102C304.47,113,331.7,117.83,360.07,118.1Zm52.18,324.53-3-.28c.16,31.34-15.37,51-44.47,60.82,16,.74,31.26-.63,46-5.47,5.56-1.83,10.52-5.15,9.52-11.65C418.06,471.51,415,457.09,412.25,442.63Z"/><path class="cls-5" d="M200.82,224.07c.12-17.3,4.71-22.11,22-22.14q83.31-.13,166.63,0C406,202,411,206.79,411,223.31q.21,69.53,0,139.06c-.05,16.49-5,21.22-21.68,21.32-24.37.14-48.75,0-73.12,0-31.57,0-63.14.11-94.7-.06-15.66-.09-20.52-5.26-20.68-21-.07-6.67,0-13.34,0-21.63h0A32.79,32.79,0,0,1,168,308.26V276.88a32.79,32.79,0,0,1,32.79-32.79h0C200.82,236.63,200.78,230.35,200.82,224.07Zm32.53,117.56v18.6H359.81V310.45c12.72-2.73,28.12.15,28.44-18.15.19-10.8-5.68-14.3-27.44-16.75V225.28H233.46v18.57h104v32.08c-7.34,3.39-16.31,5.8-16,17.37.3,10.89,8.9,13,16.48,16.55v31.78Zm182-97.26c51.9-.05,103.81-.19,155.72,0,11.92,0,16.92,5.73,17,18.11.16,18.77.07,37.53,0,56.3,0,18.49-4,22.52-22.35,22.54q-71.88.06-143.75,0c-3.83,0-7.67-.4-11.77-.63V245.18A35.83,35.83,0,0,1,415.4,244.37Zm113.7,65.08a16.65,16.65,0,0,0,.19-33.27,16.64,16.64,0,1,0-.19,33.27Zm-66.42-17.11c-.27-8.94-8.53-16.59-17.44-16.17a16.65,16.65,0,0,0,.92,33.27C455.13,309.34,463,301.26,462.68,292.34Z"/><path class="cls-4" d="M337.9,341.63H233.35v18.6H359.81V310.45c12.72-2.73,28.12.15,28.44-18.15.19-10.8-5.68-14.3-27.44-16.75V225.28H233.46v18.57h104v32.08c-7.34,3.39-16.31,5.8-16,17.37.3,10.89,8.9,13,16.48,16.55Z"/><path class="cls-4" d="M512.46,292.7a16.59,16.59,0,0,0,16.64,16.75,16.65,16.65,0,0,0,.19-33.27A16.53,16.53,0,0,0,512.46,292.7Z"/><path class="cls-4" d="M446.16,309.44c9-.1,16.79-8.18,16.52-17.1s-8.53-16.59-17.44-16.17a16.65,16.65,0,0,0,.92,33.27Z"/></svg>