<svg id="Layer_1" data-name="Layer 1" xmlns="http://www.w3.org/2000/svg" viewBox="0 0 1920 2160"><defs><style>.cls-1{fill:#cedcfb;}.cls-2{fill:#6271df;}.cls-3{fill:#030303;}.cls-4{fill:#603b32;}.cls-5{fill:#020202;}.cls-6{fill:#4a3331;}.cls-7{fill:#f7db64;}.cls-8{fill:#88573d;}.cls-9{fill:#252750;}.cls-10{fill:#191d38;}.cls-11{fill:#fafafa;}.cls-12{fill:#cddbfa;}.cls-13{fill:#f6db63;}.cls-14{fill:#706c73;}.cls-15{fill:#eaf9d3;}</style></defs><rect class="cls-1" width="1920" height="1080"/><rect class="cls-2" y="939" width="1920" height="1221"/><path class="cls-3" d="M1744,839.6v4.59l-4.89.33v25l4.89.57,0,4.54V880h5v5.2h-10.27l-9.85,0-5.21,0h-5.11l-5.1,0h-5.33l-4.7.06-5.05,0-20.54-.2v-5H1673v-10h-5l.09.07q0-12.88,0-25.76l-.08.06h4.91v-9.8a6.69,6.69,0,0,1,1.59-.15c2.79.43,3.6-.93,3.25-3.46a12,12,0,0,1,0-1.59l25.31-.18,5.14-.05h5.36l35.6.19,0,5.06H1744Zm-61.42,15.17c.12-1.74.25-3.47.38-5.18H1678v4.83l4.63.26.44,4.84,4.79.35.31,5.06h10.24V870h10v4.67h15.13v-4.9h-15c-.1-1.79-.18-3.27-.27-5-2.21,0-4.25,0-6.3,0-1.18,0-2.36.14-3.54.22v-5h-10.56l.27-5.53Zm35.89-.36h5v-4.85h-4.91v5h-4.9v5h4.8Zm-10.5-4.91h5.26v-10l-4.76-.33-.22-4.71h-9.86c-.08,1.61-.15,3.08-.23,4.72l-4.84.35v5h4.78v4.84l-4.76.23v4.85h15.13c-.14-1.78-.27-3.38-.4-5ZM1693.05,870h-10v4.59h10Z"/><path class="cls-4" d="M1738.72,885.17H1749V880l20.27-.1v10.42c-.75,0-1.51.05-2.26,0-1.9-.19-2.35.76-2.36,2.5,0,2.12,1.29,2.24,2.77,2.06,3.31-.39,1.27-3,1.83-4.56a9.47,9.47,0,0,1,1.6,0c3.08.52,4-.94,3.62-3.77a10.92,10.92,0,0,1,0-1.28c-.08-6.06.78-5.29-5.21-5.35,0-1.62,0-3.24.07-4.86l10.23-.17-.07-.08c.11,1.67.21,3.33.32,5.05l4.94.23-.15,5-4.93.22c0,4.14-.08,7.91,0,11.68.07,2.09-.37,3.39-2.81,3-2.16-.29-2.48,1-2.44,2.76.08,3.46.13,6.92-.06,10.37,0,.85-1.18,2.39-1.65,2.33-3.51-.44-3.66,1.61-3.48,4.13.08,1.18-.08,2.39,0,3.57.18,2-.48,3.12-2.69,2.83-2-.26-2.72.75-2.54,2.66.08.85,0,1.72,0,2.59,0,4.5,0,4.5-4.55,4.51,0-5.2,0-5.2-5.29-5.2v-4.4h-5.07v4.39c-.86,0-1.72.07-2.57,0-1.84-.16-2.73.41-2.74,2.48s.66,3,2.78,2.77a20.24,20.24,0,0,1,2.58,0v5h5.06c.16,6.39.22,5.14-5.07,5.26a15.63,15.63,0,0,1-2.27,0c-2.16-.24-3.33.46-3,2.85.25,1.87-.71,2.46-2.48,2.39-1.53,0-3-.07-2.68-2.17.41-2.87-1.19-3.25-3.46-3.07-1.4.11-2.88-.23-4.2.11-.82.22-2.06,1.37-2,2,.23,2.84-1.19,3.33-3.52,3.12a20.27,20.27,0,0,0-3.57,0c-2.28.2-3.85-.22-3.45-3.08.3-2.1-1.16-2.14-2.69-2.15s-2.72.22-2.45,2.07c.44,3.08-1.34,3.19-3.69,3.18-12.24-.06-24.47,0-36.7,0l-5.07,0a1.46,1.46,0,0,0-.33-.22c.05-1.65.11-3.3.16-4.94,5.82,0,11.64-.15,17.46-.08,2.07,0,3.08-.57,2.79-2.73s.78-2.59,2.66-2.53c3.23.1,6.48-.14,9.7.08,2.61.17,3.58-.77,3.23-3.3a13.94,13.94,0,0,1,0-1.94l4.78.26c-.39,5.35-.28,5.46,5,4.51V936l.06-.18a24.1,24.1,0,0,1,2.55,0c1.84.16,2.68-.45,2.69-2.48s-.63-3-2.74-2.74c-.84.09-1.7,0-2.55,0h0c.1-5.34.1-5.34-4.95-5-.54-4.82-.54-4.82,4.33-4.83,9.42,0,18.84,0,28.26,0,1.93,0,3-.29,3-2.62s-1-2.65-3-2.63c-8.22.07-16.45,0-24.68.06-1.86,0-3-.17-3-2.56,0-2.23.88-2.8,2.9-2.7,2.43.13,4.88,0,7.23,0,.65-5.19.65-5.19,5.41-5.19,7.58,0,15.16,0,22.74,0,1.52,0,3,0,2.7-2.14-.41-2.86,1.16-3.28,3.45-3.08,1.07.1,2.16,0,3.24,0,1.72.05,3.21.12,3.16-2.42s-1.52-2.17-3.06-2.18l-27-.09c.13-2.47-.91-5.71,3.6-5.28.27,0,.84-1.08.94-1.71A22.88,22.88,0,0,0,1738.72,885.17ZM1729,930.62l.07.06c-.86,0-1.72,0-2.58-.1-1.82-.17-2.75.35-2.76,2.46s.63,3,2.77,2.78a20.24,20.24,0,0,1,2.58,0v4.87c5.36.57,5.79,0,4.54-4.9l-.06-5c-.42-1.67,1.54-4.34-1.7-4.83C1727.59,925.36,1729.14,928.6,1729,930.62Zm33.51-15.39-1.54,0a13.21,13.21,0,0,0-1.38,3c-.32,1.55.12,2.62,2.14,2.64s2.7-1.08,2.33-2.78A11.92,11.92,0,0,0,1762.46,915.23Z"/><path class="cls-5" d="M1728.82,803.6l-5,.25v9.81l4.77.38c.1,1.63.18,3.09.28,4.8h4.94v5l-20.37.24h-5.38L1703,824h-14.83l-.28-5-5-.37,0,.07q0-10.07,0-20.12h5.16v-5l15.37-.29,4.7.07h5.3l.29,0,.27-.1,19.5.23v4.86l-4.67.48Z"/><path class="cls-6" d="M1673,951.44c12.24,0,24.47-.08,36.71,0,2.35,0,4.13-.1,3.69-3.18-.27-1.85,1-2.08,2.45-2.07s3,.05,2.69,2.15c-.4,2.86,1.17,3.28,3.45,3.08a20.27,20.27,0,0,1,3.57,0c2.33.21,3.75-.28,3.52-3.12,0-.64,1.19-1.79,2-2,1.32-.34,2.8,0,4.2-.11,2.27-.18,3.87.2,3.46,3.07-.3,2.1,1.15,2.12,2.68,2.17,1.77.07,2.73-.52,2.48-2.39-.31-2.39.86-3.09,3-2.85a15.63,15.63,0,0,0,2.27,0c5.29-.12,5.23,1.13,5.07-5.26v0c6.26.06,5.12.41,5.25-5.18h0c4.55,0,4.55,0,4.55-4.51,0-.87.07-1.74,0-2.59-.18-1.91.5-2.92,2.54-2.66,2.21.29,2.87-.8,2.69-2.83-.11-1.18,0-2.39,0-3.57-.18-2.52,0-4.57,3.48-4.13.47.06,1.6-1.48,1.65-2.33.19-3.45.14-6.91.06-10.37,0-1.78.28-3,2.44-2.76,2.44.34,2.88-1,2.81-3-.11-3.77,0-7.54,0-11.68l4.93-.22q.15,10.1.28,20.21l-.27,5.12c-5.25.13-5-.91-4.93,4.94,0,.11,0,.22,0,.32q-.08,5.18-.17,10.35c-5.17,0-5.17,0-5,4.8l-.18,4.95c-5.23,0-5.23,0-5,5.37,0,1.64,0,3.27.07,4.91l-.21.17c-5.07-.11-5.07-.11-5.13,4.83,0,.11,0,.22,0,.33h0c-4.56,0-4.56,0-4.57,4.55,0,.22,0,.43,0,.64h0q-40.55,0-81.08,0C1673.22,956.56,1673.1,956.43,1673,951.44Z"/><path class="cls-7" d="M1698.37,885.18l5.05,0c0,1.68.07,3.36.1,5s-.23,3.43-.35,5.15l-4.78.08H1682.8l-5.19,0-4.61-.34c-.19-1.64-.37-3.18-.58-5h-19.91c-.1-1.88-.18-3.47-.27-5.06l.07-.09,20.75.09,0,0c0,6-.55,5.14,5.15,5.19,5.51,0,11-.19,16.54.08,3.14.16,4.08-1,3.66-3.86A11.21,11.21,0,0,1,1698.37,885.18Z"/><path class="cls-7" d="M1713.48,824.08l20.37-.24c6.88,0,13.77.1,20.65.13,5.21,0,5.21,0,4.83,5.34l-5,0h-5.21l-35.59-.19Z"/><path class="cls-7" d="M1682.85,818.67l5,.37.28,5H1703v5.07l-25.31.18-4.6,0-5.2-.07-.08-.09a11.24,11.24,0,0,0,0-1.92c-.36-2.57.7-3.44,3.25-3.24s5.38-.15,8,.09c3,.28,4.18-.78,3.72-3.74A7.89,7.89,0,0,1,1682.85,818.67Z"/><path class="cls-7" d="M1779.54,874.86l-10.23.17c-1.19-.07-2.37-.18-3.56-.19-7.25-.08-14.5-.13-21.75-.19l0-4.54h31.08C1779.79,870.1,1779.79,870.1,1779.54,874.86Z"/><path class="cls-7" d="M1703.43,793.3l-15.37.29-5.19,0h-5.08l-.17-.16c0-5.21,0-5.21,5.35-5.21,4.32,0,8.64.06,13-.05.8,0,2.3-.75,2.27-1-.43-4,2.23-3.65,4.75-3.55l.16,0h.17Q1703.36,788.47,1703.43,793.3Z"/><path class="cls-7" d="M1733.49,793.54l-19.5-.23-.45-.52-.27-4.55c0-1.53.07-3.06.11-4.59l.09-.06,4.41-.47c.2.25.43.4.45.58.7,4.53.7,4.53,5.31,4.53,3.33,0,6.66,0,10,0,5.28.09,5.17-1.09,5,5.22Z"/><path class="cls-7" d="M1668,844.23q0,12.87,0,25.76c-5.41.3-5.41.3-5.41-5.11V849.4C1662.65,844,1662.65,844,1668,844.23Z"/><path class="cls-7" d="M1632.07,885V879.9c6.47,0,12.5,0,18.52.08.57,0,1.39,1.08,1.6,1.8a12.73,12.73,0,0,1,.12,3.22l-.07.09-20.1,0Z"/><path class="cls-7" d="M1682.9,798.62q0,10.05,0,20.12c-6.32.15-5.18.25-5.25-5-.06-5,0-10.1,0-15.15l.14-.14,5,.21Z"/><path class="cls-8" d="M1733.49,793.54l5.19-.08,0,0c0,1.71,0,3.43.07,5.15h-4.61c-.17,1.79-.31,3.32-.47,5h-4.82v-4.72l4.67-.48Z"/><path class="cls-7" d="M1703.27,783.64h-.17l-.16,0a12.57,12.57,0,0,0,0-1.94c-.36-2.56.7-3.62,3.26-3.24a10.94,10.94,0,0,0,1.62,0c5.35,0,5.35,0,5.63,5.15l-.09.06Z"/><path class="cls-7" d="M1642.48,895.51a64.46,64.46,0,0,0-6.81,0c-2.89.29-4.05-.74-3.59-3.61a8.77,8.77,0,0,0,0-1.62l.11-.08h9.93c.19,2,.33,3.59.47,5.18Z"/><path class="cls-7" d="M1672.85,834.49v9.8h-4.91c0-3.3-.07-6.59-.1-9.89l.08-.11,4.78.27Z"/><path class="cls-7" d="M1668,869.92h5v10a11.33,11.33,0,0,0-1.93,0c-2.53.36-3.51-.65-3.25-3.23C1668,874.44,1667.92,872.17,1668,869.92Z"/><path class="cls-7" d="M1667.84,834.4h-5v-5l4.92-.25.08.08.06,5.11Z"/><path class="cls-8" d="M1754.28,829.27l5,0v0c0,1.66-.11,3.32-.16,5l-4.89.13-.19-.18Z"/><path class="cls-7" d="M1738.72,798.59c0-1.72,0-3.44-.07-5.15.85,0,1.71.06,2.55,0,2.12-.25,2.77.65,2.76,2.73s-.82,2.67-2.68,2.49C1740.43,798.55,1739.58,798.6,1738.72,798.59Z"/><path class="cls-4" d="M1744,839.6v-5.29H1749v4.82Z"/><path class="cls-7" d="M1632.08,890.28a21.52,21.52,0,0,0-2.54,0c-2.15.25-2.69-.76-2.69-2.77s.85-2.62,2.68-2.46a21.54,21.54,0,0,0,2.54,0l.07.08c0,1.69,0,3.38,0,5.08Z"/><path class="cls-7" d="M1784.73,880.06l-4.94-.23c-.11-1.72-.21-3.38-.32-5.05C1785,874.54,1785,874.54,1784.73,880.06Z"/><path class="cls-7" d="M1652.27,905.21l-5.18,0c0-1.71,0-3.42-.08-5.13l.19-.16,4.84.19.21,5.14Z"/><path class="cls-8" d="M1749,839.13v-4.82h0l5.06-.14.19.18v4.77Z"/><path class="cls-7" d="M1677.62,798.6c-1.7-.5-4.52,1.51-4.65-2.42-.12-4.1,2.78-2.4,4.65-2.74l.17.16,0,4.86Z"/><path class="cls-7" d="M1673,879.94h4.82v5l-4.79.09,0,0C1673,883.37,1673,881.65,1673,879.94Z"/><path class="cls-7" d="M1759.18,834.23c0-1.65.11-3.31.16-5,2.08.15,5.14-1.39,4.75,2.91C1763.73,836.07,1760.9,833.77,1759.18,834.23Z"/><path class="cls-7" d="M1647,900.06c-4.53,0-4.53,0-4.53-4.55l.11-.13h4.61v4.52Z"/><path class="cls-9" d="M1769.39,946.06h10c.18,1.82.34,3.37.52,5.2H1794c.36.47.57.62.59.8.49,4.37.48,4.37,4.91,4.37H1810v4.76H1785c-.17,1.78-.3,3.23-.49,5.2h-14.8c-5,0-5,0-5.94,5h-59.87c-1.17-5-1.17-5-6.57-5h-24.5v-5c1.4-.08,2.8-.23,4.2-.23H1755c4.51,0,4.51,0,4.48-4.58h0c4.59,0,4.59,0,4.58-4.56v-.63h0c5.32,0,5.32,0,5.14-5.16Z"/><path class="cls-10" d="M1759.48,956.56c0,4.58,0,4.58-4.48,4.58h-77.94c-1.4,0-2.8.15-4.2.23v0c.44-4.67.44-4.67-4-4.77-.43,0-.85-.06-1.28-.09.12-1.67.24-3.35.37-5l5.07,0c.11,5,.23,5.12,5.41,5.12Q1718.95,956.58,1759.48,956.56Z"/><path class="cls-7" d="M1657.45,935.78h-5.18V905.21l0,0,5.13.14-.07-.07c.1,1.7.19,3.41.29,5.11v20.2l-.17,5.19Z"/><path class="cls-9" d="M1667.55,956.48c.43,0,.85.08,1.28.09,4.46.1,4.46.1,4,4.77h-15.11v-4.86Z"/><path class="cls-7" d="M1662.67,946.17h-5.22V935.78l0,0,5.17.16.15,5-.11,5.19Z"/><path class="cls-4" d="M1779.67,915.68c0-.1,0-.21,0-.32,0-5.85-.32-4.81,4.93-4.94v5Z"/><path class="cls-4" d="M1769.32,941.15c-.19-5.36-.19-5.36,5-5.37v5Z"/><path class="cls-7" d="M1667.75,946.3c0,1.64-.11,3.29-.16,4.94h-4.92v-5.07l0,0,5.15.12Z"/><path class="cls-4" d="M1774.54,930.83c-.21-4.79-.21-4.79,5-4.8v4.55Z"/><path class="cls-11" d="M1708,849.4c.13,1.6.26,3.2.4,5h-15.13v-4.85l4.76-.23v-4.84h-4.78v-5l4.84-.35c.08-1.64.15-3.11.23-4.72h9.86l.22,4.71,4.76.33v10H1708c.15-1.65.29-3.28.43-5h-4.93v4.85Z"/><path class="cls-11" d="M1698.34,865c1.18-.08,2.36-.19,3.54-.22,2,0,4.09,0,6.3,0,.09,1.7.17,3.18.27,5h15v4.9h-15.13V870h-10v-5.05Z"/><path class="cls-12" d="M1673,885.07l4.79-.09,20.54.2a11.21,11.21,0,0,0,0,1.3c.42,2.86-.52,4-3.66,3.86-5.5-.27-11,0-16.54-.08C1672.49,890.21,1673.05,891.11,1673,885.07Z"/><path class="cls-8" d="M1744,874.65c7.25.06,14.5.11,21.75.19,1.19,0,2.37.12,3.56.19,0,1.62,0,3.24-.07,4.86l0,0L1749,880h-5Z"/><path class="cls-6" d="M1738.72,885.17a22.88,22.88,0,0,1-.07,3.21c-.1.63-.67,1.74-.94,1.71-4.51-.43-3.47,2.81-3.6,5.28l-10.32,0c0-1.74-.07-3.47-.11-5.21l-.06,0a13.81,13.81,0,0,1,1.57.11c3.08.52,4.23-.82,3.74-3.81a10.53,10.53,0,0,1-.06-1.26Z"/><path class="cls-11" d="M1687.78,860h10.56v5l.07-.08h-10.24l-.31-5.06Z"/><path class="cls-11" d="M1693.05,870v4.59h-10V870Z"/><path class="cls-8" d="M1703,829.11V824l5.13.05c0,1.66,0,3.32,0,5Z"/><path class="cls-4" d="M1708.11,829.06c0-1.65,0-3.31,0-5h5.38v5Z"/><path class="cls-11" d="M1718.54,854.51v-5h4.91v4.85h-5Z"/><path class="cls-4" d="M1754.1,834.18l-5.06.14,0-5.06h5.21Z"/><path class="cls-13" d="M1718.55,885.19h5.11c0,1.66,0,3.32,0,5l.06,0-5.11.14C1718.56,888.61,1718.56,886.9,1718.55,885.19Z"/><path class="cls-8" d="M1723.62,890.16c0-1.66,0-3.32,0-5l5.21,0a10.53,10.53,0,0,0,.06,1.26c.49,3-.66,4.33-3.74,3.81A13.81,13.81,0,0,0,1723.62,890.16Z"/><path class="cls-4" d="M1708.12,885.16h5.33c0,1.71-.11,3.42-.17,5.14h-5.1l0,0Z"/><path class="cls-11" d="M1687.86,859.87l-4.79-.35-.44-4.84-.09.09,5.51-.34c-.1,2-.18,3.77-.27,5.53Z"/><path class="cls-11" d="M1718.44,854.41v5.15h-4.8v-5h4.9Z"/><path class="cls-7" d="M1713.28,890.31c.06-1.72.12-3.43.17-5.14l5.1,0c0,1.71,0,3.42,0,5.13l0,0-5.06-.07Z"/><path class="cls-11" d="M1682.63,854.68l-4.63-.26v-4.83h4.93c-.13,1.71-.26,3.44-.39,5.18Z"/><path class="cls-8" d="M1708.12,885.16c0,1.7,0,3.4,0,5.1h-4.61c0-1.68-.07-3.36-.1-5Z"/><path class="cls-4" d="M1673.06,829.25l4.6,0a12,12,0,0,0,0,1.59c.35,2.53-.46,3.89-3.25,3.46a6.69,6.69,0,0,0-1.59.15l-.15.07Z"/><path class="cls-8" d="M1723.79,895.39l10.32,0,27,.09c1.54,0,3-.22,3.06,2.18s-1.44,2.47-3.16,2.42c-1.08,0-2.17.07-3.24,0-2.29-.2-3.86.22-3.45,3.08.3,2.11-1.18,2.15-2.7,2.14-7.58,0-15.16,0-22.74,0-4.76,0-4.76,0-5.41,5.19-2.35,0-4.8.1-7.23,0-2-.1-2.89.47-2.9,2.7,0,2.39,1.17,2.57,3,2.56,8.23-.06,16.46,0,24.68-.06,2,0,3,.33,3,2.63s-1,2.64-3,2.62c-9.42-.06-18.84,0-28.26,0-4.87,0-4.87,0-4.34,4.83-.06.13-.14.27-.21.4-4.53-.07-4.53-.07-4.65,4.58a1.7,1.7,0,0,1-.45,0c-1.65.57-4.48-1.61-4.73,2.26-.27,4.25,2.76,2.59,4.74,2.89a2,2,0,0,1,.49,0,13.94,13.94,0,0,0,0,1.94c.35,2.53-.62,3.47-3.23,3.3-3.22-.22-6.47,0-9.7-.08-1.88-.06-2.93.47-2.66,2.53s-.72,2.76-2.79,2.73c-5.82-.07-11.64,0-17.46.08h0c.14-6.3.4-5.24-5-5.31l-.15-5c.13-6.4.37-5.25-5-5.35v-20.2h4.79c.21,2,.37,3.43.56,5.22,5.66,0,11.15-.13,16.63.06,2.6.09,3.59-.76,3.24-3.3a12.56,12.56,0,0,1,0-1.94h5.2v-5.2h0c2.41-.17,5.8,1.15,5.31-3.5,0-.3.71-1,1-1,4.49.59,4.16-2.43,4-5.3l4.78-.08,5,0h5.36l4.84,0Zm-15.68,17.71c.3-1.9-.39-2.7-2.42-2.72s-2.82.63-2.8,2.76.8,2.54,2.68,2.54S1708.46,915.13,1708.11,913.1Z"/><path class="cls-8" d="M1769.26,890.29V879.87l0,0c6,.06,5.13-.71,5.21,5.35a10.92,10.92,0,0,0,0,1.28c.42,2.83-.54,4.29-3.62,3.77a9.47,9.47,0,0,0-1.6,0Z"/><path class="cls-14" d="M1703.58,935.8a2,2,0,0,0-.49,0c0-1.72,0-3.43,0-5.15a1.7,1.7,0,0,0,.45,0l4.7-.1,5.12.1h0c0,1.72,0,3.44,0,5.17l-.06.18-5,.08Z"/><path class="cls-6" d="M1713.37,935.8c0-1.73,0-3.45,0-5.17.85,0,1.71,0,2.55,0,2.11-.25,2.74.69,2.74,2.74s-.85,2.64-2.69,2.48A24.1,24.1,0,0,0,1713.37,935.8Z"/><path class="cls-6" d="M1729,935.88a18.56,18.56,0,0,0-2.58-.06c-2.14.23-2.77-.7-2.77-2.78s.94-2.63,2.76-2.46c.86.07,1.72.07,2.58.1,0,1.71,0,3.43-.07,5.15Z"/><path class="cls-6" d="M1749.19,935.87a20.24,20.24,0,0,0-2.58,0c-2.12.22-2.78-.68-2.78-2.77s.9-2.64,2.74-2.48c.85.08,1.71,0,2.57,0l0,.18,0,5.07Z"/><path class="cls-3" d="M1713.35,930.63l-5.12-.1c0-1.49,0-3,0-4.48.07-.13.15-.27.21-.4C1713.45,925.29,1713.45,925.29,1713.35,930.63Z"/><path class="cls-3" d="M1708.36,936.06l5-.08v4.59C1708.08,941.52,1708,941.41,1708.36,936.06Z"/><path class="cls-3" d="M1733.57,935.84c1.25,4.94.82,5.47-4.54,4.9v-4.86l-.08,0Z"/><path class="cls-3" d="M1754.25,940.92h-5.06v-5l-.09,0h5.14c0,1.71,0,3.41,0,5.12Z"/><path class="cls-6" d="M1754.21,930.59c5.28,0,5.28,0,5.29,5.2h0l-5.26.06h0c0-1.72,0-3.44,0-5.16Z"/><path class="cls-8" d="M1762.46,915.23a11.92,11.92,0,0,1,1.55,2.86c.37,1.7-.16,2.82-2.33,2.78s-2.46-1.09-2.14-2.64a13.21,13.21,0,0,1,1.38-3Z"/><path class="cls-5" d="M1749.14,930.58v-4.39h5.07v4.4l.06.09-5.15.08Z"/><path class="cls-14" d="M1733.57,935.84H1729c0-1.72,0-3.44.07-5.15l-.07-.06,4.56.21Z"/><path class="cls-8" d="M1769.24,890.27c-.56,1.55,1.48,4.17-1.83,4.56-1.48.18-2.78.06-2.77-2.06,0-1.74.46-2.69,2.36-2.5.75.07,1.51,0,2.26,0Z"/><path class="cls-5" d="M1733.51,930.83l-4.56-.21c.19-2-1.36-5.26,2.86-4.62C1735.05,926.49,1733.09,929.16,1733.51,930.83Z"/><path class="cls-8" d="M1703.27,783.64h10.11c0,1.53-.07,3.06-.11,4.59-6.32,0-4.89-.3-5.14,5.13l-4.7-.07Q1703.36,788.47,1703.27,783.64Z"/><path class="cls-6" d="M1682.87,793.61l5.19,0v5h-5.16l-.16,0C1682.79,797,1682.83,795.3,1682.87,793.61Z"/><path class="cls-4" d="M1708.13,793.37c.25-5.43-1.18-5.15,5.14-5.13l.27,4.55a.8.8,0,0,0-.11.57Z"/><path class="cls-15" d="M1713.43,793.36a.8.8,0,0,1,.11-.57l.45.52-.27.1Z"/><path class="cls-4" d="M1754.24,935.84l5.26-.06c-.13,5.59,1,5.24-5.25,5.18C1754.25,939.25,1754.24,937.55,1754.24,935.84Z"/><path class="cls-10" d="M1769.18,946.23c.18,5.15.18,5.15-5.14,5.16,0-.11,0-.22,0-.33C1764.11,946.12,1764.11,946.12,1769.18,946.23Z"/><path class="cls-10" d="M1764.05,951.38V952c0,4.59,0,4.59-4.58,4.56,0-.21,0-.42,0-.64C1759.49,951.37,1759.49,951.37,1764.05,951.38Z"/><path class="cls-8" d="M1647.2,899.9v-4.52h-4.61c-.14-1.59-.28-3.17-.47-5.18h-9.93c0-1.7,0-3.39,0-5.08l20.1,0c.09,1.59.17,3.18.27,5.06h19.91c.21,1.83.39,3.37.58,5l4.61.34c0,1.52,0,3,.05,4.56l0,0c-4.58-.09-4.58-.09-4.6,4.49,0,.21,0,.42,0,.63l-5.13.1h-10.58l.07.07c.19-6.2.41-5.29-5-5.28H1652Z"/><path class="cls-6" d="M1667.89,905.31l5.13-.1c4.55,0,4.55,0,4.6-4.49,0-.21,0-.42,0-.63l0,0c5.34-.2,5.13,1,5.14-4.58h5.2c0,3.26,0,6.51,0,9.77h0c-5.9,0-5.18-.69-5.2,5.2h0c-4,0-8-.12-12,0-2.19.08-3.29-.54-3-2.89C1667.93,906.84,1667.87,906.07,1667.89,905.31Z"/><path class="cls-4" d="M1688,905.25c0-3.26,0-6.51,0-9.77h10.39c.12,2.87.45,5.89-4,5.3-.31,0-1,.66-1,1C1693.82,906.4,1690.43,905.08,1688,905.25Z"/><path class="cls-4" d="M1682.8,895.48c0,5.62.2,4.38-5.14,4.58,0-1.52,0-3-.05-4.56Z"/><path class="cls-4" d="M1708.19,895.38l-5,0c.12-1.72.23-3.43.35-5.15h4.61l0,0C1708.18,892,1708.19,893.69,1708.19,895.38Z"/><path class="cls-8" d="M1673.06,829.25l-.36,5.31-4.78-.27-.06-5.11Z"/><path class="cls-8" d="M1682.87,793.61c0,1.69-.08,3.38-.13,5.06l-5-.21,0-4.86Z"/><path class="cls-4" d="M1652,900.09h.32c5.43,0,5.21-.92,5,5.28l-5.13-.14Z"/><path class="cls-4" d="M1667.89,905.31c0,.76,0,1.53-.05,2.27-.31,2.35.79,3,3,2.89,4-.14,8,0,12,0a12.56,12.56,0,0,0,0,1.94c.35,2.54-.64,3.39-3.24,3.3-5.48-.19-11-.06-16.63-.06-.19-1.79-.35-3.25-.56-5.22h-4.79c-.1-1.7-.19-3.41-.29-5.11Z"/><path class="cls-4" d="M1657.6,930.61c5.37.1,5.13-1.05,5,5.35l-5.17-.16Z"/><path class="cls-4" d="M1662.75,941c5.44.07,5.18-1,5,5.31l-5.15-.12Z"/><path class="cls-3" d="M1708,849.4h-4.59v-4.85h4.93c-.14,1.67-.28,3.3-.43,5A.81.81,0,0,1,1708,849.4Z"/><path class="cls-4" d="M1723.79,895.39l-5.4,0c.07-1.71.14-3.42.2-5.13l0,0,5.11-.14C1723.72,891.92,1723.75,893.65,1723.79,895.39Z"/><path class="cls-6" d="M1708.19,895.38c0-1.69,0-3.38,0-5.07h5.1l.25-.09c0,1.73,0,3.45,0,5.17Z"/><path class="cls-7" d="M1713.55,895.39c0-1.72,0-3.44,0-5.17l5.06.07c-.06,1.71-.13,3.42-.2,5.13Z"/><path class="cls-4" d="M1708.11,913.1c.35,2-.64,2.57-2.54,2.58s-2.66-.52-2.68-2.54.71-2.78,2.8-2.76S1708.41,911.2,1708.11,913.1Z"/><path class="cls-4" d="M1682.82,910.45c0-5.89-.7-5.19,5.2-5.2v5.2Z"/><path class="cls-4" d="M1703.08,930.62c0,1.72,0,3.43,0,5.15-2-.3-5,1.36-4.74-2.89C1698.6,929,1701.43,931.19,1703.08,930.62Z"/><path class="cls-4" d="M1708.18,926.05c0,1.49,0,3,0,4.48l-4.7.1C1703.65,926,1703.65,926,1708.18,926.05Z"/><path class="cls-14" d="M1749.12,930.76l5.15-.08c0,1.72,0,3.44,0,5.16h-5.19C1749.11,934.14,1749.12,932.45,1749.12,930.76Z"/><path class="cls-4" d="M1677.63,900.09c0,.21,0,.42,0,.63,0,4.54,0,4.54-4.6,4.49,0-.21,0-.42,0-.63C1673.05,900,1673.05,900,1677.63,900.09Z"/></svg>